<!DOCTYPE svg PUBLIC "-//W3C//DTD SVG 20010904//EN" "http://www.w3.org/TR/2001/REC-SVG-20010904/DTD/svg10.dtd"> <!--я так понял, что это просто информационная строка, которую можно просто скопипастить-->
<svg version="1.0" xmlns="http://www.w3.org/2000/svg" width="20px" height="20px"  preserveAspectRatio="xMidYMid meet" viewBox="0 0 210 200">
<!-- version - скопировать
    xmlns - скопировать
    ширина/высота - можно задавать какую угодно
    preserveAspectRatio - пока что думаю что это масштабирование и растяжение/сжатие картинки. тут указано оптимальное 
    viewBox - указано на сайте, скопируй оттуда-->
<g id="layer101" fill="#DC143C" stroke="#32CD32"> <!-- 
    id - можно установить любой, 
    fill - цвет картинки,
    stroke  - цвет обводки картинки-->
 <path d="M51 186 c-47 -26 -63 -84 -37 -135 23 -43 97 -66 136 -41 11 7 1 9 -33 8 -37 0 -54 5 -72 22 -34 32 -34 88 0 120 56 52 145 15 145 -60 0 -20 -3 -40 -6 -43 -4 -4 -22 18 -41 48 -19 30 -36 55 -38 55 -2 0 -13 -14 -25 -31 -26 -35 -19 -52 8 -19 l18 22 31 -51 c18 -28 36 -51 41 -51 13 0 32 47 32 78 -1 69 -93 115 -159 78z"/>
 <!-- path - это по сути и есть формула картинки, её с сайта и требуется спиздить. profit -->
 </g>

</svg>